<svg fill="none" height="15" viewBox="0 0 14 15" width="14" xmlns="http://www.w3.org/2000/svg"><path d="m7 13.4762c3.3137 0 6-2.6863 6-6 0-3.31371-2.6863-6-6-6-3.31371 0-6 2.68629-6 6 0 3.3137 2.68629 6 6 6z" stroke="#fff" stroke-width="1.3"/><g clip-rule="evenodd" fill="#fff" fill-rule="evenodd"><path d="m6.9999 4.4762c.23669 0 .42857.19187.42857.42857v5.14283c0 .2367-.19188.4286-.42857.4286-.2367 0-.42858-.1919-.42858-.4286v-5.14283c0-.2367.19188-.42857.42858-.42857z"/><path d="m4 7.47621c0-.23669.19188-.42857.42857-.42857h5.14286c.23669 0 .42857.19188.42857.42857s-.19188.42857-.42857.42857h-5.14286c-.23669 0-.42857-.19188-.42857-.42857z"/></g></svg>