<svg fill="none" height="28" viewBox="0 0 28 28" width="28" xmlns="http://www.w3.org/2000/svg"><g fill="#fff" stroke="#fff" stroke-width="2"><path d="m6.59982 24.5934v-.0062l-.40003-.3c-1.60052-1.2003-2.90241-2.7538-3.80431-4.5396-.90033-1.7826-1.37781-3.7487-1.39542-5.7457.04649-3.4337 1.43116-6.71386 3.85957-9.14227 2.42785-2.42785 5.70707-3.81245 9.13987-3.85954 3.4329.04709 6.7121 1.43169 9.14 3.85954 2.4284 2.4284 3.813 5.70857 3.8595 9.14227-.0176 1.9969-.4951 3.9631-1.3954 5.7457-.9019 1.7858-2.2038 3.3393-3.8043 4.5396l-.4.3v.0062c-2.148 1.5625-4.7382 2.4066-7.3998 2.4066-2.6615 0-5.25167-.8441-7.39968-2.4066zm.92092-1.1055-.15456.7078.62445.3674c1.82122 1.0715 3.89587 1.6366 6.00887 1.6366 2.1131 0 4.1877-.5651 6.009-1.6366l.6244-.3674-.1546-.7078c-.253-1.1588-.8946-2.1963-1.8183-2.9403s-2.0741-1.1499-3.2602-1.1503h-.0003-2.7999-.0003c-1.1861.0004-2.3365.4063-3.26019 1.1503-.92373.744-1.56533 1.7815-1.81837 2.9403zm13.41006-1.2066.5703 1.363 1.0534-1.0361c1.1427-1.1239 2.0527-2.4619 2.6781-3.9377.6254-1.4757.9538-3.0603.9665-4.663l.0001-.0101-.0001-.0101c-.0395-3.22-1.3362-6.297-3.6133-8.57405-2.277-2.27705-5.354-3.57375-8.574-3.61327l-.0123-.00015-.0122.00015c-3.22.03952-6.297 1.33622-8.57405 3.61327s-3.57375 5.35405-3.61327 8.57405l-.00012.0101.00008.0101c.01274 1.6027.34117 3.1873.96654 4.663.62536 1.4758 1.5354 2.8138 2.6781 3.9377l1.0534 1.0361.57032-1.363c.45643-1.0908 1.22501-2.0225 2.20921-2.6779.98419-.6554 2.14009-1.0054 3.32259-1.006h2.7989c1.1825.0006 2.3384.3506 3.3226 1.006s1.7528 1.5871 2.2092 2.6779z"/><path d="m9.39941 11.2229.00054-.0233-.00054-.0233c-.01409-.6048.09466-1.20631.31968-1.76796.22501-.56165.56161-1.07182.98941-1.49966.4279-.42784.9381-.76444 1.4997-.98946.5617-.22502 1.1631-.33377 1.768-.31968l.0233-.99973.0233.99973c.6049-.01409 1.2063.09466 1.768.31968.5616.22502 1.0718.56162 1.4996.98946.4279.42784.7645.93801.9895 1.49966s.3338 1.16316.3197 1.76796l-.0006.0233.0006.0233c.0141.6049-.0947 1.2064-.3197 1.768-.225.5617-.5616 1.0718-.9895 1.4997-.4278.4278-.938.7644-1.4996.9894-.5617.2251-1.1631.3338-1.768.3197l-.0233-.0005-.0233.0005c-.6049.0141-1.2063-.0946-1.768-.3197-.5616-.225-1.0718-.5616-1.4997-.9894-.4278-.4279-.7644-.938-.98941-1.4997-.22502-.5616-.33377-1.1631-.31968-1.768zm3.14739 3.5331c.4629.1787.9571.2618 1.4527.2444.4956.0174.9898-.0657 1.4527-.2444.4779-.1846.912-.4671 1.2743-.8294.3622-.3623.6448-.7963.8293-1.2743.1788-.4629.2619-.9571.2445-1.4527.0174-.4956-.0657-.9897-.2445-1.45265-.1845-.47794-.4671-.912-.8293-1.27428-.3623-.36229-.7964-.64479-1.2743-.82937-.4629-.17878-.9571-.26186-1.4527-.24443-.4956-.01743-.9898.06565-1.4527.24443-.4779.18458-.912.46708-1.2743.82937-.3623.36228-.6448.79634-.8293 1.27428-.1788.46295-.2619.95705-.2445 1.45265-.0174.4956.0657.9898.2445 1.4527.1845.478.467.912.8293 1.2743s.7964.6448 1.2743.8294z"/></g></svg>