<svg fill="none" height="12" viewBox="0 0 10 12" width="10" xmlns="http://www.w3.org/2000/svg"><path d="m5.36714 6.23164h1.19263c.15815 0 .30983.05969.42166.16593s.17466.25033.17466.40058-.06283.29435-.17466.40059-.26351.16593-.42166.16593h-1.78895c-.07837.00022-.15602-.01428-.22847-.04267-.07246-.02839-.13829-.07011-.19371-.12276s-.09934-.11519-.12922-.18403c-.02988-.06883-.04515-.1426-.04491-.21706v-2.26605c0-.15025.06283-.29434.17466-.40058s.2635-.16593.42165-.16593c.15816 0 .30983.05969.42166.16593s.17466.25033.17466.40058zm-4.25233-2.3448c-.136246-.06003-.254392-.15169-.343536-.26652-.089144-.11484-.146417-.24914-.166535-.39054-.020119-.1414-.002435-.28534.051418-.41853.053854-.1332.142145-.25137.25673-.34361.114583-.09225.251773-.1556.398913-.1842.14714-.02861.2995-.02156.44302.0205.14351.04205.27357.11777.37818.22016.1046.10238.18039.22814.22036.36568.2149-.12006.43941-.22386.67145-.31045-.26079-.17216-.4569-.41894-.55974-.70439-.10285-.28544-.10706-.59463-.01202-.882502.09504-.287875.28436-.539396.54038-.717911.25601-.178515.56535-.27469565.88292-.27452678h1.78895c.31757-.00016887.6269.09601178.88292.27452678s.44534.430036.54038.717911c.09504.287872.09083.597062-.01202.882502-.10285.28545-.29895.53223-.55974.70439.23256.08725.45737.19092.67145.31045.03997-.13754.11575-.2633.22036-.36568.10461-.10239.23467-.17811.37818-.22016.14352-.04206.29588-.04911.44302-.0205.14714.0286.28433.09195.39891.1842.11459.09224.20288.21041.25673.34361.05386.13319.07154.27713.05142.41853s-.07739.2757-.16653.39054c-.08915.11483-.20729.20649-.34354.26652.58312.66104.9556 1.46642 1.07368 2.32156.11809.85515-.02312 1.72455-.40705 2.5061-.38392.78156-.99461 1.4428-1.76036 1.9061-.76574.4633-1.65474.7094-2.56258.7094-.90785 0-1.79685-.2461-2.56259-.7094s-1.376436-1.12454-1.76036-1.9061c-.383923-.78155-.5251344-1.65095-.4070498-2.5061.1180848-.85514.4905618-1.66052 1.0736898-2.32156zm3.65601 6.31036c.46986 0 .93511-.0879 1.3692-.25871.43409-.17082.82852-.42119 1.16076-.73683.33224-.31563.59578-.69034.77559-1.10274.1798-.41239.27235-.85439.27235-1.30077 0-.44637-.09255-.88837-.27235-1.30077-.17981-.41239-.44335-.7871-.77559-1.10274-.33224-.31563-.72667-.566-1.16076-.73682s-.89934-.25874-1.3692-.25874c-.94891 0-1.85896.35811-2.52995.99556-.67098.63745-1.04794 1.50202-1.04794 2.40351s.37696 1.76606 1.04794 2.40351c.67099.63745 1.58104.99554 2.52995.99554zm-.89447-9.06417c-.07907 0-.15491.02984-.21083.08296-.05591.05312-.08733.12517-.08733.20029 0 .07513.03142.14717.08733.20029.05592.05313.13176.08297.21083.08297h1.78895c.07907 0 .15491-.02984.21083-.08297.05591-.05312.08733-.12516.08733-.20029 0-.07512-.03142-.14717-.08733-.20029-.05592-.05312-.13176-.08296-.21083-.08296z" fill="#001514"/></svg>