<svg fill="none" height="28" viewBox="0 0 30 28" width="30" xmlns="http://www.w3.org/2000/svg" xmlns:xlink="http://www.w3.org/1999/xlink"><mask id="a" fill="#fff"><path d="m14.855 13.0165c2.6918 0 4.7854-2.1934 4.7854-4.8852 0-2.69183-2.1933-4.78547-4.8851-4.78547-2.6919 0-4.78551 2.19334-4.78551 4.78547 0 2.6918 2.19331 4.8852 4.88521 4.8852zm-.0997-7.67673c.0997 0 .0997 0 0 0 1.5951 0 2.8912 1.29607 2.8912 2.89123 0 1.59515-1.2961 2.7915-2.8912 2.7915-1.5952 0-2.7916-1.29604-2.7916-2.7915 0-1.59516 1.2961-2.89123 2.7916-2.89123z" fill="#fff"/></mask><mask id="b" fill="#fff"><path d="m29.61 12.4183c-1.8943-1.6948-4.3867-2.5921-6.9789-2.4924h-.7975c-.1994.7976-.4985 1.4955-.8973 2.0936.5982-.0997 1.0967-.0997 1.6948-.0997 1.8943-.0997 3.7885.4985 5.284 1.5952v7.1782h1.9939v-7.9758z" fill="#fff"/></mask><mask id="c" fill="#fff"><path d="m20.3383 3.54525c.4985-1.19636 1.8942-1.79455 3.1903-1.29606 1.1964.49849 1.7945 1.89425 1.296 3.19031-.3987.89728-1.296 1.49546-2.1933 1.49546-.1994 0-.4985 0-.6979-.09969.0997.49848.0997.99697.0997 1.39576v.59818c.1994 0 .3988.0997.5982.0997 2.4924 0 4.4864-1.99395 4.4864-4.38668 0-2.49244-1.994-4.4863828-4.3867-4.4863828-1.5952 0-2.9909.7975788-3.7885 2.1933428.4985.29909.997.69788 1.3958 1.29606z" fill="#fff"/></mask><mask id="d" fill="#fff"><path d="m8.97276 12.1192c-.39879-.5982-.69788-1.296-.89727-2.0936h-.79758c-2.59213-.09972-5.08457.7976-6.978818 2.3927l-.299092.2991v7.9758h1.99395v-7.1782c1.59515-1.0967 3.38971-1.6949 5.28396-1.5952.59818 0 1.19637.0997 1.69485.1994z" fill="#fff"/></mask><mask id="e" fill="#fff"><path d="m7.27774 8.82922c.19939 0 .39879 0 .59818-.0997v-.59819c0-.49848 0-.99697.0997-1.39576-.1994.0997-.49849.0997-.69788.0997-1.29607 0-2.39274-1.09667-2.39274-2.39274 0-1.29606 1.09667-2.39273 2.39274-2.39273.99697 0 1.89425.59818 2.29304 1.49546.39879-.49849.99702-.99698 1.49542-1.39577-1.29603-2.0936405-3.98786-2.791522-6.0815-1.495456-2.09365 1.296066-2.79153 3.987896-1.49546 6.081536.79758 1.29607 2.19334 2.09365 3.7885 2.09365z" fill="#fff"/></mask><mask id="f" fill="#fff"><path d="m23.03 18.4002-.1994-.2991c-1.9939-2.1934-4.7854-3.4894-7.7764-3.3897-2.9909-.0997-5.8821 1.1963-7.87605 3.3897l-.19939.2991v7.577c0 .8972.69788 1.6948 1.69485 1.6948h12.76129c.8973 0 1.6948-.7976 1.6948-1.6948v-7.577zm-1.9939 7.2779h-12.06339v-6.5801c1.59519-1.5951 3.78849-2.3927 6.08149-2.3927 2.1934-.0997 4.3867.7976 5.9819 2.3927z" fill="#fff"/></mask><g fill="#fff"><path d="m14.855 13.0165c2.6918 0 4.7854-2.1934 4.7854-4.8852 0-2.69183-2.1933-4.78547-4.8851-4.78547-2.6919 0-4.78551 2.19334-4.78551 4.78547 0 2.6918 2.19331 4.8852 4.88521 4.8852zm-.0997-7.67673c.0997 0 .0997 0 0 0 1.5951 0 2.8912 1.29607 2.8912 2.89123 0 1.59515-1.2961 2.7915-2.8912 2.7915-1.5952 0-2.7916-1.29604-2.7916-2.7915 0-1.59516 1.2961-2.89123 2.7916-2.89123z"/><path d="m14.855 15.6865c4.2378 0 7.4554-3.4612 7.4554-7.5552h-5.34c0 1.28965-.9696 2.2152-2.1154 2.2152zm7.4554-7.5552c0-4.23783-3.4611-7.455475-7.5551-7.455475v5.340005c1.2896 0 2.2151.96964 2.2151 2.11547zm-7.5551-7.455475c-4.2026 0-7.45551 3.425095-7.45551 7.455475h5.34001c0-1.15388.9343-2.11547 2.1155-2.11547zm-7.45551 7.455475c0 4.1664 3.38871 7.5552 7.55521 7.5552v-5.34c-1.2173 0-2.2152-.99797-2.2152-2.2152zm7.45551-.12153h.0005.0006.0006.0006.0006.0005.0006.0006.0005.0006.0005.0006.0006.0005.0006.0005.0006.0005.0005.0006.0005.0006.0005.0005.0006.0005.0005.0005.0005.0006.0005.0005.0005.0005.0005.0005.0005.0005.0005.0005.0005.0005.0005.0005.0004.0005.0005.0005.0004.0005.0005.0005.0004.0005.0004.0005.0005.0004.0005.0004.0004.0005.0004.0005.0004.0004.0005.0004.0004.0005.0004.0004.0004.0004.0005.0004.0004.0004.0004.0004.0004.0004.0004.0004.0004.0004.0003.0004.0004.0004.0004.0003.0004.0004.0004.0003.0004.0004.0003.0004.0003.0004.0003.0004.0003.0004.0003.0003.0004.0003.0003.0004.0003.0003.0003.0004.0003.0003.0003.0003.0003.0003.0004.0003.0003.0003.0002.0003.0003.0003.0003.0003.0003.0003.0002.0003.0003.0002.0003.0003.0002.0003.0003.0002.0003.0002.0003.0002.0003.0002.0003.0002.0002.0003.0002.0002.0003.0002.0002.0002.0002.0003.0002.0002.0002.0002.0002.0002.0002.0002.0002.0002.0002.0002.0001.0002.0002.0002.0002.0001.0002.0002.0002.0001.0002.0001.0002.0002.0001.0002.0001.0002.0001.0001.0002.0001.0002.0001.0001.0002.0001.0001.0001.0001.0002.0001.0001.0001.0001.0001.0001.0001.0001.0001.0001.0001.0001.0001.0001.0001.0001.0001.0001.0001.0001.0001.0001.0001.0001.0001.0001.0001.0001.0001s0 0 0-2.67 0-2.67 0-2.67h-.0001-.0001s0 0-.0001 0c-.0001 0-.0001 0-.0001 0h-.0001-.0001-.0001c-.0001 0-.0001 0-.0001 0s0 0-.0001 0h-.0001s0 0-.0001 0c-.0001 0-.0001 0-.0001 0h-.0001s0 0-.0001 0c-.0001 0-.0001 0-.0001 0-.0001 0-.0001 0-.0001 0h-.0001-.0001-.0001s0 0-.0001 0c0 0 0 0-.0001 0 0 0 0 0-.0001 0 0 0 0 0-.0001 0 0 0 0 0-.0001 0h-.0001-.0001-.0001-.0001c-.0001 0-.0001 0-.0001 0-.0001 0-.0001 0-.0002 0 0 0 0 0-.0001 0h-.0001-.0001c-.0001 0-.0001 0-.0001 0-.0001 0-.0001 0-.0002 0h-.0001-.0001c-.0001 0-.0001 0-.0002 0h-.0001c-.0001 0-.0001 0-.0002 0 0 0 0 0-.0001 0h-.0001c-.0001 0-.0001 0-.0002 0h-.0001c-.0001 0-.0001 0-.0002 0h-.0001c-.0001 0-.0001 0-.0002 0s-.0001 0-.0002 0h-.0001c-.0001 0-.0001 0-.0002 0h-.0001c-.0001 0-.0002 0-.0002 0-.0001 0-.0001 0-.0002 0 0 0-.0001 0-.0002 0h-.0001c-.0001 0-.0001 0-.0002 0s-.0001 0-.0002 0c0 0-.0001 0-.0002 0 0 0-.0001 0-.0002 0h-.0001c-.0001 0-.0002 0-.0002 0-.0001 0-.0002 0-.0002 0-.0001 0-.0001 0-.0002 0s-.0001 0-.0002 0-.0001 0-.0002 0-.0001 0-.0002 0-.0001 0-.0002 0-.0001 0-.0002 0-.0001 0-.0002 0-.0002 0-.0002 0c-.0001 0-.0002 0-.0002 0-.0001 0-.0002 0-.0002 0-.0001 0-.0002 0-.0003 0 0 0-.0001 0-.0002 0s-.0001 0-.0002 0-.0002 0-.0002 0c-.0001 0-.0002 0-.0002 0-.0001 0-.0002 0-.0003 0s-.0001 0-.0002 0-.0002 0-.0002 0c-.0001 0-.0002 0-.0003 0 0 0-.0001 0-.0002 0s-.0002 0-.0002 0c-.0001 0-.0002 0-.0003 0s-.0001 0-.0002 0-.0002 0-.0003 0-.0001 0-.0002 0-.0002 0-.0003 0-.0001 0-.0002 0-.0002 0-.0003 0-.0002 0-.0002 0c-.0001 0-.0002 0-.0003 0s-.0002 0-.0003 0c0 0-.0001 0-.0002 0s-.0002 0-.0003 0-.0002 0-.0003 0c0 0-.0001 0-.0002 0s-.0002 0-.0003 0-.0002 0-.0003 0-.0002 0-.0002 0c-.0001 0-.0002 0-.0003 0s-.0002 0-.0003 0-.0002 0-.0003 0-.0002 0-.0003 0-.0002 0-.0003 0-.0002 0-.0003 0-.0002 0-.0003 0-.0002 0-.0002 0c-.0001 0-.0002 0-.0003 0s-.0002 0-.0003 0-.0002 0-.0003 0c-.0002 0-.0003 0-.0004 0s-.0002 0-.0003 0-.0002 0-.0003 0-.0002 0-.0003 0-.0002 0-.0003 0-.0002 0-.0003 0-.0002 0-.0003 0-.0002 0-.0004 0c-.0001 0-.0002 0-.0003 0s-.0002 0-.0003 0-.0002 0-.0003 0-.0002 0-.0004 0c-.0001 0-.0002 0-.0003 0s-.0002 0-.0003 0-.0002 0-.0004 0c-.0001 0-.0002 0-.0003 0s-.0002 0-.0003 0c-.0002 0-.0003 0-.0004 0s-.0002 0-.0003 0-.0003 0-.0004 0-.0002 0-.0003 0-.0003 0-.0004 0-.0002 0-.0003 0c-.0002 0-.0003 0-.0004 0s-.0002 0-.0003 0c-.0002 0-.0003 0-.0004 0s-.0003 0-.0004 0-.0002 0-.0003 0c-.0002 0-.0003 0-.0004 0s-.0003 0-.0004 0-.0002 0-.0004 0c-.0001 0-.0002 0-.0003 0-.0002 0-.0003 0-.0004 0s-.0003 0-.0004 0-.0002 0-.0004 0c-.0001 0-.0002 0-.0004 0-.0001 0-.0002 0-.0003 0-.0002 0-.0003 0-.0004 0-.0002 0-.0003 0-.0004 0-.0002 0-.0003 0-.0004 0s-.0003 0-.0004 0-.0003 0-.0004 0-.0003 0-.0004 0-.0003 0-.0004 0-.0003 0-.0004 0c-.0002 0-.0003 0-.0004 0-.0002 0-.0003 0-.0004 0-.0002 0-.0003 0-.0004 0-.0002 0-.0003 0-.0005 0-.0001 0-.0002 0-.0004 0-.0001 0-.0003 0-.0004 0s-.0003 0-.0004 0c-.0002 0-.0003 0-.0004 0-.0002 0-.0003 0-.0005 0-.0001 0-.0002 0-.0004 0-.0001 0-.0003 0-.0004 0-.0002 0-.0003 0-.0005 0-.0001 0-.0002 0-.0004 0-.0001 0-.0003 0-.0004 0-.0002 0-.0003 0-.0005 0-.0001 0-.0003 0-.0004 0-.0002 0-.0003 0-.0005 0-.0001 0-.0002 0-.0004 0-.0001 0-.0003 0-.0004 0-.0002 0-.0003 0-.0005 0-.0001 0-.0003 0-.0004 0-.0002 0-.0004 0-.0005 0-.0002 0-.0003 0-.0005 0-.0001 0-.0003 0-.0004 0-.0002 0-.0003 0-.0005 0-.0001 0-.0003 0-.0004 0-.0002 0-.0004 0-.0005 0-.0002 0-.0003 0-.0005 0-.0001 0-.0003 0-.0005 0-.0001 0-.0003 0-.0004 0-.0002 0-.0003 0-.0005 0s-.0003 0-.0005 0c-.0001 0-.0003 0-.0005 0-.0001 0-.0003 0-.0004 0-.0002 0-.0004 0-.0005 0-.0002 0-.0004 0-.0005 0-.0002 0-.0003 0-.0005 0s-.0003 0-.0005 0-.0003 0-.0005 0-.0003 0-.0005 0-.0003 0-.0005 0-.0003 0-.0005 0-.0003 0-.0005 0-.0003 0-.0005 0-.0003 0-.0005 0-.0003 0-.0005 0-.0004 0-.0005 0c-.0002 0-.0004 0-.0005 0-.0002 0-.0004 0-.0006 0-.0001 0-.0003 0-.0005 0s-.0003 0-.0005 0-.0003 0-.0005 0-.0004 0-.0005 0c-.0002 0-.0004 0-.0006 0s-.0003 0-.0005 0-.0004 0-.0005 0c-.0002 0-.0004 0-.0006 0s-.0003 0-.0005 0-.0004 0-.0006 0c-.0001 0-.0003 0-.0005 0s-.0004 0-.0005 0c-.0002 0-.0004 0-.0006 0s-.0004 0-.0005 0c-.0002 0-.0004 0-.0006 0s-.0004 0-.0005 0c-.0002 0-.0004 0-.0006 0s-.0004 0-.0006 0c-.0001 0-.0003 0-.0005 0s-.0004 0-.0006 0-.0004 0-.0005 0c-.0002 0-.0004 0-.0006 0s-.0004 0-.0006 0-.0004 0-.0005 0c-.0002 0-.0004 0-.0006 0s-.0004 0-.0006 0-.0004 0-.0006 0-.0004 0-.0006 0-.0003 0-.0005 0v5.34h.0005.0006.0006.0006.0006.0005.0006.0006.0005.0006.0005.0006.0006.0005.0006.0005.0006.0005.0005.0006.0005.0006.0005.0005.0006.0005.0005.0005.0005.0006.0005.0005.0005.0005.0005.0005.0005.0005.0005.0005.0005.0005.0005.0005.0004.0005.0005.0005.0004.0005.0005.0005.0004.0005.0004.0005.0005.0004.0005.0004.0004.0005.0004.0005.0004.0004.0005.0004.0004.0005.0004.0004.0004.0004.0005.0004.0004.0004.0004.0004.0004.0004.0004.0004.0004.0004.0003.0004.0004.0004.0004.0003.0004.0004.0004.0003.0004.0004.0003.0004.0003.0004.0003.0004.0003.0004.0003.0003.0004.0003.0003.0004.0003.0003.0003.0004.0003.0003.0003.0003.0003.0003.0004.0003.0003.0003.0002.0003.0003.0003.0003.0003.0003.0003.0002.0003.0003.0002.0003.0003.0002.0003.0003.0002.0003.0002.0003.0002.0003.0002.0003.0002.0002.0003.0002.0002.0003.0002.0002.0002.0002.0003.0002.0002.0002.0002.0002.0002.0002.0002.0002.0002.0002.0002.0001.0002.0002.0002.0002.0001.0002.0002.0002.0001.0002.0001.0002.0002.0001.0002.0001.0002.0001.0001.0002.0001.0002.0001.0001.0002.0001.0001.0001.0001.0002.0001.0001.0001.0001.0001.0001.0001.0001.0001.0001.0001.0001.0001.0001.0001.0001.0001.0001.0001.0001.0001.0001.0001.0001.0001.0001.0001.0001.0001s0 0 0-2.67 0-2.67 0-2.67h-.0001-.0001s0 0-.0001 0c-.0001 0-.0001 0-.0001 0h-.0001-.0001-.0001c-.0001 0-.0001 0-.0001 0s0 0-.0001 0h-.0001s0 0-.0001 0c-.0001 0-.0001 0-.0001 0h-.0001s0 0-.0001 0c-.0001 0-.0001 0-.0001 0-.0001 0-.0001 0-.0001 0h-.0001-.0001-.0001s0 0-.0001 0c0 0 0 0-.0001 0 0 0 0 0-.0001 0 0 0 0 0-.0001 0 0 0 0 0-.0001 0h-.0001-.0001-.0001-.0001c-.0001 0-.0001 0-.0001 0-.0001 0-.0001 0-.0002 0 0 0 0 0-.0001 0h-.0001-.0001c-.0001 0-.0001 0-.0001 0-.0001 0-.0001 0-.0002 0h-.0001-.0001c-.0001 0-.0001 0-.0002 0h-.0001c-.0001 0-.0001 0-.0002 0 0 0 0 0-.0001 0h-.0001c-.0001 0-.0001 0-.0002 0h-.0001c-.0001 0-.0001 0-.0002 0h-.0001c-.0001 0-.0001 0-.0002 0s-.0001 0-.0002 0h-.0001c-.0001 0-.0001 0-.0002 0h-.0001c-.0001 0-.0002 0-.0002 0-.0001 0-.0001 0-.0002 0 0 0-.0001 0-.0002 0h-.0001c-.0001 0-.0001 0-.0002 0s-.0001 0-.0002 0c0 0-.0001 0-.0002 0 0 0-.0001 0-.0002 0h-.0001c-.0001 0-.0002 0-.0002 0-.0001 0-.0002 0-.0002 0-.0001 0-.0001 0-.0002 0s-.0001 0-.0002 0-.0001 0-.0002 0-.0001 0-.0002 0-.0001 0-.0002 0-.0001 0-.0002 0-.0001 0-.0002 0-.0002 0-.0002 0c-.0001 0-.0002 0-.0002 0-.0001 0-.0002 0-.0002 0-.0001 0-.0002 0-.0003 0 0 0-.0001 0-.0002 0s-.0001 0-.0002 0-.0002 0-.0002 0c-.0001 0-.0002 0-.0002 0-.0001 0-.0002 0-.0003 0s-.0001 0-.0002 0-.0002 0-.0002 0c-.0001 0-.0002 0-.0003 0 0 0-.0001 0-.0002 0s-.0002 0-.0002 0c-.0001 0-.0002 0-.0003 0s-.0001 0-.0002 0-.0002 0-.0003 0-.0001 0-.0002 0-.0002 0-.0003 0-.0001 0-.0002 0-.0002 0-.0003 0-.0002 0-.0002 0c-.0001 0-.0002 0-.0003 0s-.0002 0-.0003 0c0 0-.0001 0-.0002 0s-.0002 0-.0003 0-.0002 0-.0003 0c0 0-.0001 0-.0002 0s-.0002 0-.0003 0-.0002 0-.0003 0-.0002 0-.0002 0c-.0001 0-.0002 0-.0003 0s-.0002 0-.0003 0-.0002 0-.0003 0-.0002 0-.0003 0-.0002 0-.0003 0-.0002 0-.0003 0-.0002 0-.0003 0-.0002 0-.0002 0c-.0001 0-.0002 0-.0003 0s-.0002 0-.0003 0-.0002 0-.0003 0c-.0002 0-.0003 0-.0004 0s-.0002 0-.0003 0-.0002 0-.0003 0-.0002 0-.0003 0-.0002 0-.0003 0-.0002 0-.0003 0-.0002 0-.0003 0-.0002 0-.0004 0c-.0001 0-.0002 0-.0003 0s-.0002 0-.0003 0-.0002 0-.0003 0-.0002 0-.0004 0c-.0001 0-.0002 0-.0003 0s-.0002 0-.0003 0-.0002 0-.0004 0c-.0001 0-.0002 0-.0003 0s-.0002 0-.0003 0c-.0002 0-.0003 0-.0004 0s-.0002 0-.0003 0-.0003 0-.0004 0-.0002 0-.0003 0-.0003 0-.0004 0-.0002 0-.0003 0c-.0002 0-.0003 0-.0004 0s-.0002 0-.0003 0c-.0002 0-.0003 0-.0004 0s-.0003 0-.0004 0-.0002 0-.0003 0c-.0002 0-.0003 0-.0004 0s-.0003 0-.0004 0-.0002 0-.0004 0c-.0001 0-.0002 0-.0003 0-.0002 0-.0003 0-.0004 0s-.0003 0-.0004 0-.0002 0-.0004 0c-.0001 0-.0002 0-.0004 0-.0001 0-.0002 0-.0003 0-.0002 0-.0003 0-.0004 0-.0002 0-.0003 0-.0004 0-.0002 0-.0003 0-.0004 0s-.0003 0-.0004 0-.0003 0-.0004 0-.0003 0-.0004 0-.0003 0-.0004 0-.0003 0-.0004 0c-.0002 0-.0003 0-.0004 0-.0002 0-.0003 0-.0004 0-.0002 0-.0003 0-.0004 0-.0002 0-.0003 0-.0005 0-.0001 0-.0002 0-.0004 0-.0001 0-.0003 0-.0004 0s-.0003 0-.0004 0c-.0002 0-.0003 0-.0004 0-.0002 0-.0003 0-.0005 0-.0001 0-.0002 0-.0004 0-.0001 0-.0003 0-.0004 0-.0002 0-.0003 0-.0005 0-.0001 0-.0002 0-.0004 0-.0001 0-.0003 0-.0004 0-.0002 0-.0003 0-.0005 0-.0001 0-.0003 0-.0004 0-.0002 0-.0003 0-.0005 0-.0001 0-.0002 0-.0004 0-.0001 0-.0003 0-.0004 0-.0002 0-.0003 0-.0005 0-.0001 0-.0003 0-.0004 0-.0002 0-.0004 0-.0005 0-.0002 0-.0003 0-.0005 0-.0001 0-.0003 0-.0004 0-.0002 0-.0003 0-.0005 0-.0001 0-.0003 0-.0004 0-.0002 0-.0004 0-.0005 0-.0002 0-.0003 0-.0005 0-.0001 0-.0003 0-.0005 0-.0001 0-.0003 0-.0004 0-.0002 0-.0003 0-.0005 0s-.0003 0-.0005 0c-.0001 0-.0003 0-.0005 0-.0001 0-.0003 0-.0004 0-.0002 0-.0004 0-.0005 0-.0002 0-.0004 0-.0005 0-.0002 0-.0003 0-.0005 0s-.0003 0-.0005 0-.0003 0-.0005 0-.0003 0-.0005 0-.0003 0-.0005 0-.0003 0-.0005 0-.0003 0-.0005 0-.0003 0-.0005 0-.0003 0-.0005 0-.0003 0-.0005 0-.0004 0-.0005 0c-.0002 0-.0004 0-.0005 0-.0002 0-.0004 0-.0006 0-.0001 0-.0003 0-.0005 0s-.0003 0-.0005 0-.0003 0-.0005 0-.0004 0-.0005 0c-.0002 0-.0004 0-.0006 0s-.0003 0-.0005 0-.0004 0-.0005 0c-.0002 0-.0004 0-.0006 0s-.0003 0-.0005 0-.0004 0-.0006 0c-.0001 0-.0003 0-.0005 0s-.0004 0-.0005 0c-.0002 0-.0004 0-.0006 0s-.0004 0-.0005 0c-.0002 0-.0004 0-.0006 0s-.0004 0-.0005 0c-.0002 0-.0004 0-.0006 0s-.0004 0-.0006 0c-.0001 0-.0003 0-.0005 0s-.0004 0-.0006 0-.0004 0-.0005 0c-.0002 0-.0004 0-.0006 0s-.0004 0-.0006 0-.0004 0-.0005 0c-.0002 0-.0004 0-.0006 0s-.0004 0-.0006 0-.0004 0-.0006 0-.0004 0-.0006 0-.0003 0-.0005 0zm0 0c.1205 0 .2212.10067.2212.22123h5.34c0-3.06976-2.4915-5.56123-5.5612-5.56123zm.2212.22123c0 .01802-.0018.02897-.0029.03425-.0011.00538-.0022.00818-.0028.00945-.0007.00169-.0034.00751-.0131.01679-.0184.01748-.0785.06103-.2024.06103v5.33998c2.9455 0 5.5612-2.2705 5.5612-5.4615zm-.2212.12152c-.0329 0-.0477-.00584-.0533-.00823-.0079-.00338-.0182-.0096-.0295-.02126-.0262-.02682-.0388-.06111-.0388-.09203h-5.33997c0 2.9075 2.32997 5.4615 5.46157 5.4615zm-.1216-.12152c0-.06251.0242-.12611.0756-.17871.055-.05632.0814-.04252.046-.04252v-5.34c-3.0304 0-5.46157 2.55249-5.46157 5.56123z" mask="url(#a)"/><path d="m29.61 12.4183c-1.8943-1.6948-4.3867-2.5921-6.9789-2.4924h-.7975c-.1994.7976-.4985 1.4955-.8973 2.0936.5982-.0997 1.0967-.0997 1.6948-.0997 1.8943-.0997 3.7885.4985 5.284 1.5952v7.1782h1.9939v-7.9758z"/><path d="m29.61 12.4183 1.8879-1.8879-.0524-.0524-.0552-.0495zm-6.9789-2.4924v2.67h.0514l.0513-.002zm-.7975 0v-2.67h-2.0847l-.5056 2.02243zm-.8973 2.0936-2.2216-1.481-3.4186 5.1279 6.0791-1.0132zm1.6948-.0997v2.67h.0702l.0702-.0036zm5.284 1.5952h2.67v-1.353l-1.0911-.8001zm0 7.1782h-2.67v2.67h2.67zm1.9939 0v2.67h2.67v-2.67zm0-7.9758h2.67v-1.1059l-.782-.7821zm1.4813-2.2889c-2.4161-2.16168-5.5856-3.29663-8.8618-3.17063l.2053 5.33603c1.9081-.0734 3.7234.5862 5.0958 1.8142zm-8.7592-3.1726h-.7975v5.34h.7975zm-3.3878 2.02243c-.1357.54269-.322.95037-.5286 1.26017l4.4432 2.9621c.591-.8865 1.0028-1.8747 1.2659-2.9271zm2.1319 5.37487c.3516-.0586.6423-.0634 1.2559-.0634v-5.33995c-.5827 0-1.289-.00477-2.1338.13602zm1.3963-.067c1.2549-.0661 2.546.3349 3.5647 1.0819l3.1578-4.3062c-1.9723-1.44636-4.4696-2.24171-7.0032-2.10836zm2.4736-1.0712v7.1782h5.34v-7.1782zm2.67 9.8482h1.9939v-5.34h-1.9939zm4.6639-2.67v-7.9758h-5.34v7.9758zm-.782-9.8638-.2991-.299-3.7759 3.7759.2991.2991z" mask="url(#b)"/><path d="m20.3383 3.54525c.4985-1.19636 1.8942-1.79455 3.1903-1.29606 1.1964.49849 1.7945 1.89425 1.296 3.19031-.3987.89728-1.296 1.49546-2.1933 1.49546-.1994 0-.4985 0-.6979-.09969.0997.49848.0997.99697.0997 1.39576v.59818c.1994 0 .3988.0997.5982.0997 2.4924 0 4.4864-1.99395 4.4864-4.38668 0-2.49244-1.994-4.4863828-4.3867-4.4863828-1.5952 0-2.9909.7975788-3.7885 2.1933428.4985.29909.997.69788 1.3958 1.29606z"/><path d="m23.5286 2.24919 1.0269-2.464617-.034-.014181-.0344-.013236zm1.296 3.19031 2.4399 1.08439.0277-.06229.0245-.06362zm-2.8912 1.39577 1.1941-2.38812-4.8829-2.44143 1.0707 5.35318zm.0997 1.99394h-2.67v2.66999h2.67zm-3.0906-6.58002-2.3182-1.324692-1.2968 2.269412 2.2413 1.34478zm3.8604 2.32299c-.0361.08665-.1018.13766-.1493.15725-.0504.02082-.0853.01111-.0835.01179l1.917-4.984064c-2.5863-.994716-5.5347.1722312-6.6134 2.761174zm-.3012.14162c-.0867-.0361-.1377-.10181-.1573-.14925-.0208-.05041-.0111-.0853-.0118-.08352l4.9841 1.91695c.9947-2.58625-.1722-5.53468-2.7612-6.613407zm-.1169-.35869c.0114-.02572.0226-.03515.0326-.04194.0071-.00477.0728-.04821.2139-.04821v5.34c2.0324 0 3.8394-1.29486 4.6332-3.08107zm.2465-.09015c-.1146 0-.1107-.00195-.0833.00079.0206.00206.0803.00875.1659.02903.0822.01947.232.06157.4136.15237l-2.3881 4.77624c.5279.26397 1.0298.33111 1.2773.35586.2767.02767.5298.02571.6146.02571zm-3.316 3.09394c.0171.08559.031.19948.0391.35197.0082.15671.0087.314.0087.52016h5.34c0-.3713.0075-1.12445-.1515-1.91939zm.0478.87213v.59818h5.34v-.59818zm2.67 3.26817c-.1683 0-.2922-.0207-.3425-.0301-.0417-.0079-.0695-.0156-.006.0002.0362.0091.1637.0418.3051.0683.1499.0281.3736.0613.6416.0613v-5.33999c.1683 0 .2923.02074.3425.03015.0417.00783.0695.0156.006-.00028-.0362-.00905-.1637-.04174-.3051-.06826-.1499-.02811-.3736-.06131-.6416-.06131zm.5982.0997c3.9279 0 7.1564-3.15046 7.1564-7.05667h-5.34c0 .87926-.7594 1.71668-1.8164 1.71668zm7.1564-7.05667c0-3.927859-3.1505-7.15638-7.0567-7.15638v5.34c.8793 0 1.7167.75937 1.7167 1.81638zm-7.0567-7.15638c-2.5428 0-4.8286 1.3019-6.1067 3.538648l4.6364 2.649382c.317-.55478.8228-.84803 1.4703-.84803zm-5.1622 7.15284c.2657.15941.428.30782.5479.48761l4.4431-2.9621c-.6777-1.01657-1.5123-1.665742-2.2436-2.1045174z" mask="url(#c)"/><path d="m8.97276 12.1192c-.39879-.5982-.69788-1.296-.89727-2.0936h-.79758c-2.59213-.09972-5.08457.7976-6.978818 2.3927l-.299092.2991v7.9758h1.99395v-7.1782c1.59515-1.0967 3.38971-1.6949 5.28396-1.5952.59818 0 1.19637.0997 1.69485.1994z"/><path d="m8.97276 12.1192-.52363 2.6182 6.32077 1.2641-3.5756-5.3633zm-.89727-2.0936 2.59031-.64759-.5056-2.02243h-2.08471zm-.79758 0-.10262 2.668.05129.002h.05133zm-6.978818 2.3927-1.719842-2.0423-.08737.0736-.08076.0807zm-.299092.2991-1.88797-1.888-.78203.7821v1.1059zm0 7.9758h-2.67v2.67h2.67zm1.99395 0v2.67h2.67v-2.67zm0-7.1782-1.512635-2.2002-1.157368.7957v1.4045zm5.28396-1.5952-.14033 2.6663.07011.0037h.07022zm3.91639-1.2816c-.2065-.3099-.3929-.7175-.5285-1.26019l-5.18059 1.29519c.26311 1.0524.67496 2.0405 1.26598 2.9271zm-3.11881-3.28262h-.79758v5.34002h.79758zm-.69497.00197c-3.27-.12577-6.409166 1.00405-8.80127 3.01845l3.43968 4.0846c1.3964-1.1759 3.2421-1.8406 5.15636-1.767zm-8.9694 3.17275-.29909.2991 3.77594 3.776.29909-.2991zm-1.08112 2.1871v7.9758h5.34v-7.9758zm2.67 10.6458h1.99395v-5.34h-1.99395zm4.66395-2.67v-7.1782h-5.340003v7.1782zm-1.15737-4.978c1.19291-.8201 2.4166-1.193 3.631-1.1291l.28066-5.33258c-2.57411-.13548-4.93953.68806-6.936925 2.06128zm3.77133-1.1254c.32882 0 .71938.0572 1.17122.1476l1.04726-5.23632c-.54513-.10903-1.35094-.25125-2.21848-.25125z" mask="url(#d)"/><path d="m7.27774 8.82922c.19939 0 .39879 0 .59818-.0997v-.59819c0-.49848 0-.99697.0997-1.39576-.1994.0997-.49849.0997-.69788.0997-1.29607 0-2.39274-1.09667-2.39274-2.39274 0-1.29606 1.09667-2.39273 2.39274-2.39273.99697 0 1.89425.59818 2.29304 1.49546.39879-.49849.99702-.99698 1.49542-1.39577-1.29603-2.0936405-3.98786-2.791522-6.0815-1.495456-2.09365 1.296066-2.79153 3.987896-1.49546 6.081536.79758 1.29607 2.19334 2.09365 3.7885 2.09365z"/><path d="m7.87592 8.72952 1.19406 2.38808 1.47592-.7379v-1.65018zm.0997-1.99395 2.59028.64757 1.408-5.63184-5.19234 2.59615zm1.59516-3.19031-2.43988 1.08439 1.78273 4.01113 2.74207-3.42759zm1.49542-1.39577 1.668 2.08492 1.8478-1.47825-1.2456-2.012033zm-7.57696 4.58608 2.27393-1.39934-.00372-.00603zm3.7885 4.76363c.13216 0 .95113.039 1.79224-.3816l-2.38812-4.7762c.2314-.1157.43833-.15834.56379-.17403.05709-.00713.09452-.00829.09824-.00841.00227-.00007-.00065.00005-.01224.00014-.01276.0001-.02725.00012-.05391.00012zm3.26816-2.76968v-.59819h-5.33998v.59819zm0-.59819c0-.26357.0007-.4408.0088-.59493.0082-.15623.0203-.18958.0112-.15326l-5.18056-1.29514c-.19615.7846-.17942 1.64825-.17942 2.04333zm-3.76434-3.78388c.18158-.09079.33138-.13289.41359-.15236.08562-.02028.1453-.02698.16585-.02903.02742-.00274.03133-.00079-.08326-.00079v5.34c.0848 0 .33796.00195.61462-.02571.24747-.02475.74938-.0919 1.27732-.35587zm.49618-.18218c.11621 0 .18216.04826.20558.07168s.07168.08938.07168.20558h-5.34c0 2.77067 2.29207 5.06274 5.06274 5.06274zm.27726.27726c0 .11621-.04826.18216-.07168.20559-.02342.02342-.08938.07168-.20558.07168v-5.340003c-2.77067 0-5.06274 2.292073-5.06274 5.062733zm-.27726.27727c-.03972 0-.07268-.01246-.09408-.0265-.01999-.01312-.03942-.03364-.05276-.06365l4.8798-2.16878c-.8196-1.844087-2.66192-3.081073-4.73296-3.081073zm4.37796.49339c.189-.23625.5629-.56629 1.0785-.97878l-3.3359-4.1698358c-.48137.3850948-1.30387 1.0520258-1.91244 1.8127458zm1.6807-4.469063c-2.0351-3.287587-6.35059-4.469077-9.75707-2.360297l2.81074 4.54041c.7808-.48336 1.849-.26908 2.40596.63062zm-9.75707-2.360297c-3.287581 2.035166-4.469074 6.35063-2.3603 9.75711l4.54042-2.81074c-.48336-.7808-.26909-1.849.63062-2.40596zm-2.36402 9.75108c1.28531 2.08859 3.54352 3.36429 6.06243 3.36429v-5.33998c-.6714 0-1.20473-.31949-1.51457-.82299z" mask="url(#e)"/><path d="m23.03 18.4002-.1994-.2991c-1.9939-2.1934-4.7854-3.4894-7.7764-3.3897-2.9909-.0997-5.8821 1.1963-7.87605 3.3897l-.19939.2991v7.577c0 .8972.69788 1.6948 1.69485 1.6948h12.76129c.8973 0 1.6948-.7976 1.6948-1.6948v-7.577zm-1.9939 7.2779h-12.06339v-6.5801c1.59519-1.5951 3.78849-2.3927 6.08149-2.3927 2.1934-.0997 4.3867.7976 5.9819 2.3927z"/><path d="m23.03 18.4002-2.2215 1.481.7926 1.189h1.4289zm-.1994-.2991 2.2216-1.4811-.1111-.1667-.1348-.1483zm-7.7764-3.3897-.0889 2.6685.0889.0029.089-.0029zm-7.87605 3.3897-1.97564-1.7961-.13478.1483-.11115.1667zm-.19939.2991-2.22158-1.4811-.44842.6727v.8084zm16.15094 0h2.67v-2.67h-2.67zm-2.0936 7.2779v2.67h2.67v-2.67zm-12.06339 0h-2.67v2.67h2.67zm0-6.5801-1.88798-1.8879-.78202.782v1.1059zm6.08149-2.3927v2.67h.0607l.0606-.0027zm5.9819 2.3927h2.67v-1.1059l-.782-.782zm4.2155-2.1789-.1994-.2991-4.4431 2.9621.1994.2991zm-.4453-.6141c-2.4738-2.7211-5.9999-4.3902-9.841-4.2622l.1779 5.3371c2.1407-.0714 4.1977.8516 5.7118 2.5172zm-9.6631-4.2622c-3.815-.1271-7.44822 1.5205-9.94069 4.2622l3.95128 3.5921c1.49541-1.645 3.64461-2.5895 5.81151-2.5172zm-10.18662 4.5772-.1994.2991 4.44316 2.9621.19939-.2991zm-.64782 1.7802v7.577h5.34v-7.577zm0 7.577c0 2.2681 1.7916 4.3648 4.36485 4.3648v-5.34c.24675 0 .51317.1104.70482.31.17644.1838.27033.4219.27033.6652zm4.36485 4.3648h12.76129v-5.34h-12.76129zm12.76129 0c2.3719 0 4.3648-1.993 4.3648-4.3648h-5.34c0-.347.1474-.5804.2711-.7041s.3571-.2711.7041-.2711zm4.3648-4.3648v-7.577h-5.34v7.577zm-2.67-10.247h-.0997v5.34h.0997zm-2.0936 7.2779h-12.06339v5.34h12.06339zm-9.3934 2.67v-6.5801h-5.33999v6.5801zm-.782-4.6921c1.0291-1.0291 2.5106-1.6107 4.1935-1.6107v-5.34c-2.903 0-5.80825 1.0136-7.96947 3.1748zm4.3148-1.6134c1.3955-.0635 2.8727.5135 3.9726 1.6134l3.776-3.7759c-2.0905-2.0905-4.9999-3.308-7.9911-3.172zm3.1906-.2746v6.5801h5.34v-6.5801z" mask="url(#f)"/></g></svg>