<svg fill="none" height="13" viewBox="0 0 11 13" width="11" xmlns="http://www.w3.org/2000/svg"><path d="m5.48148.476196c.49193-.000032.96523.188181 1.32281.526024.35757.33785.5723.79972.60015 1.29087l.00297.10903h3.11109c.1126.00004.221.04281.3033.11969s.1323.18212.14.29446c.0077.11235-.0276.22342-.0986.31077-.0711.08735-.1727.14447-.2842.15982l-.0605.00415h-.4717l-.7585 7.71559c-.03801.3846-.2115.7432-.4895 1.0118-.27799.2686-.6424.4295-1.02813.4542l-.1043.0036h-4.36978c-.38669 0-.76077-.1375-1.0554-.388-.29463-.2504-.4906-.5975-.55289-.9791l-.01363-.1031-.759114-7.71499h-.471112c-.1074 0-.211165-.0389-.292107-.10949-.080941-.07059-.1335825-.16811-.14818887-.27451l-.00414813-.06044c.00000453-.1074.0388993-.21117.109492-.29211.070592-.08094.168106-.13358.274508-.14819l.060444-.00415h3.111116c0-.51079.20291-1.00065.56409-1.36183.36118-.361184.85104-.564094 1.36183-.564094zm3.6723 2.814814h-7.34519l.75082 7.62789c.01662.1702.09163.3294.21228.4506s.27952.1969.44964.2143l.07526.0035h4.36978c.35556 0 .65719-.2518.72593-.5938l.01185-.0746.74903-7.62789zm-2.63526 1.62963c.1074.00001.21116.0389.29211.10949.08094.07059.13358.16811.14819.27451l.00414.06045v4.14814c-.00003.11261-.04281.221-.11968.30329-.07688.08228-.18212.13231-.29447.13999-.11234.00767-.22341-.02758-.31076-.09864-.08736-.07107-.14448-.17264-.15983-.28419l-.00415-.06045v-4.14814c0-.11788.04683-.23092.13018-.31427s.19639-.13018.31427-.13018zm-2.07408 0c.1074.00001.21117.0389.29211.10949s.13358.16811.14819.27451l.00415.06045v4.14814c-.00004.11261-.04281.221-.11969.30329-.07687.08228-.18212.13231-.29446.13999-.11235.00767-.22342-.02758-.31077-.09864-.08735-.07107-.14447-.17264-.15982-.28419l-.00415-.06045v-4.14814c0-.11788.04683-.23092.13018-.31427.08334-.08335.19639-.13018.31426-.13018zm1.03704-3.55555c-.26026 0-.511.09787-.70245.27418-.19145.1763-.30961.41814-.33103.67752l-.00356.08533h2.07408c0-.27504-.10926-.53881-.30374-.73329-.19448-.19449-.45826-.30374-.7333-.30374z" fill="#d81159"/></svg>