<svg fill="none" height="15" viewBox="0 0 16 15" width="16" xmlns="http://www.w3.org/2000/svg"><g fill="#fff"><path d="m0 7.00137 3.90761 3.11133v-2.33349h7.03369v-1.55568h-7.03369v-2.33352z"/><path d="m8.59751.00002673c-.92413-.0025503-1.83958.17743327-2.69333.52952427-.85374.352092-1.6288.869289-2.28028 1.521639l1.10507 1.09986c1.03317-1.0283 2.40709-1.59535 3.86854-1.59535 1.46149 0 2.83539.56705 3.86849 1.59535 1.0332 1.02831 1.6029 2.39575 1.6029 3.85031s-.5697 2.822-1.6029 3.85034c-1.0331 1.0283-2.407 1.5953-3.86849 1.5953-1.46145 0-2.83537-.567-3.86854-1.5953l-1.10507 1.0998c1.32781 1.3224 3.09405 2.0512 4.97361 2.0512 1.87959 0 3.64579-.7288 4.97359-2.0512 1.3286-1.3215 2.0609-3.07944 2.0609-4.95014 0-1.87071-.7323-3.62862-2.0609-4.95017-.6515-.65235-1.4265-1.169547-2.2803-1.521639-.8537-.352091-1.76916-.53207457-2.69329-.52952427z"/></g></svg>