<svg fill="none" height="27" viewBox="0 0 22 27" width="22" xmlns="http://www.w3.org/2000/svg"><g stroke="#fff" stroke-linecap="round" stroke-linejoin="round" stroke-width="2"><path d="m10.9001 14.6125c2.0504 0 3.7125-1.6621 3.7125-3.7125 0-2.05036-1.6621-3.7125-3.7125-3.7125-2.05034 0-3.71248 1.66214-3.71248 3.7125 0 2.0504 1.66214 3.7125 3.71248 3.7125z"/><path d="m10.8999 1c-2.6256 0-5.14371 1.04303-7.00032 2.89964s-2.899641 4.37472-2.899641 7.00036c0 2.3413.497471 3.8734 1.856251 5.5687l8.04371 9.2813 8.0438-9.2813c1.3588-1.6953 1.8562-3.2274 1.8562-5.5687 0-2.62564-1.043-5.14375-2.8996-7.00036s-4.3747-2.89964-7.0004-2.89964z"/></g></svg>