<svg fill="none" height="13" viewBox="0 0 11 13" width="11" xmlns="http://www.w3.org/2000/svg"><g stroke="#001514" stroke-linecap="round" stroke-linejoin="round" stroke-width="1.3"><path d="m5.5321 7.23152c.9386 0 1.6995-.76089 1.6995-1.6995s-.7609-1.6995-1.6995-1.6995c-.93861 0-1.6995.76089-1.6995 1.6995s.76089 1.6995 1.6995 1.6995z"/><path d="m5.532 1c-1.20196 0-2.35469.47748-3.20461 1.32739-.84991.84992-1.32739 2.00265-1.32739 3.20461 0 1.07182.22773 1.77315.84975 2.54925l3.68225 4.24875 3.68225-4.24875c.62202-.7761.84975-1.47743.84975-2.54925 0-1.20196-.47748-2.35469-1.32739-3.20461-.84992-.84991-2.00265-1.32739-3.20461-1.32739z"/></g></svg>