<svg viewBox="0 0 566.95 94.74" xmlns="http://www.w3.org/2000/svg"><g fill="#fff"><path d="m361.79 32.93a10.51 10.51 0 0 0 10.51-10.5h-47.59v72h12.71v-30.76h15.15a12.83 12.83 0 0 0 12.83-12.83h-28v-17.91z"/><path d="m425.21 78.73a23.22 23.22 0 0 1 -34-15.06h58.19a35.49 35.49 0 0 0 .42-5.18 36 36 0 1 0 -6.25 20.24zm-11.39-43.48a23.24 23.24 0 0 1 22.62 18h-45.25a23.24 23.24 0 0 1 22.63-18z"/><path d="m459.55 22.52a10.41 10.41 0 0 0 -10.41 10.41h18v61.53a10.2 10.2 0 0 0 10.19-10.2v-51.33h7.28a10.41 10.41 0 0 0 10.39-10.41z"/><path d="m542.38 79a23.23 23.23 0 0 1 -34-15.07h58.19a36.93 36.93 0 0 0 .41-5.18 36 36 0 1 0 -6.27 20.25zm-11.38-43.46a23.23 23.23 0 0 1 22.63 18h-45.27a23.22 23.22 0 0 1 22.64-18z"/><path d="m303.6 62.48a14.17 14.17 0 0 1 14.15 14.15v16h-29.39v-16a14.17 14.17 0 0 1 14.16-14.15zm0-1.74h-1.08a15.89 15.89 0 0 0 -15.9 15.89v17.77h32.87v-17.77a15.88 15.88 0 0 0 -15.89-15.89z"/><path d="m257.58 63.44a20.47 20.47 0 0 0 -1.12-40.92h-41v71.94a13.14 13.14 0 0 0 13.14-13.14v-17.83h11.6l23.63 27.09a11.31 11.31 0 0 0 16 1.08l1.37-1.19zm-9.58-10.74h-19.44v-19.39h27.9a9.7 9.7 0 0 1 0 19.39h-8.25"/><path d="m197 33.31v26.61c0 12.2-9.19 22.87-21.36 23.68a23 23 0 0 1 -24.5-22.87v-38.21a10.8 10.8 0 0 0 -10.8 10.79v27.42a33.73 33.73 0 0 0 33.73 33.72 33.52 33.52 0 0 0 23.09-9.19 10.77 10.77 0 0 0 10.64 9.2v-71.94a10.79 10.79 0 0 0 -10.8 10.79z"/><path d="m309.7 24v2a14.41 14.41 0 0 1 -5.14 27.12v-30.53c-.5 0-1-.07-1.5-.07a16.23 16.23 0 1 0 6.64 1.48zm-8.1 29.12a14.41 14.41 0 0 1 0-28.68z"/><path d="m44.5 33.31v32.91c0 8.56-6.14 16.2-14.64 17.29a16.86 16.86 0 0 1 -19.06-16.7 8.32 8.32 0 0 0 -8.32-8.32h-2.48v8.32a27.64 27.64 0 0 0 27.65 27.64 27.63 27.63 0 0 0 27.64-27.64v-44.29a10.79 10.79 0 0 0 -10.79 10.79z"/><path d="m419.6.42a1.42 1.42 0 0 0 -1-.42h-9.7a1.4 1.4 0 0 0 -1 .42l-12.09 12.26a1.42 1.42 0 0 0 1 2.41h8.95a1.42 1.42 0 0 0 1-.45l4-4.28a1.41 1.41 0 0 1 1-.45h3.79a1.42 1.42 0 0 1 1 .45l4 4.28a1.4 1.4 0 0 0 1 .45h9a1.42 1.42 0 0 0 1-2.41z"/><path d="m100.25 88.71-.41-10.13c0-.36 0-1-.53-1s-.53.66-.53 1l-.42 10.13z"/><path d="m98.32 89.64-.06 1.55a1.05 1.05 0 0 0 2.1 0l-.07-1.55z"/><path d="m104.21 82.44-.28-1.4c-.06-.37-.11-1-.68-.94h-.13-.07c-.57.11-.4.74-.33 1.11l.22 1.42.68-.18z"/><path d="m92.79 76.38c-.54-.2-.72.44-.85.79l-3.86 9.38 1.78.65 3.08-9.67c.12-.33.4-.96-.15-1.15z"/><path d="m87.14 88.84a1 1 0 0 0 2 .72l.47-1.48-1.85-.67z"/><path d="m95.62 80.13h-.13-.07c-.57-.09-.63.57-.69.94l-.28 1.4.7.07.58.15.21-1.42c.06-.4.25-1.03-.32-1.14z"/><path d="m95.5 83.63v-.1h-.54l-.61-.17v.11h-.08l-.46 2.31-1.81 7.39a1 1 0 0 0 .83 1.21h.12.17a1 1 0 0 0 1.2-.85l.9-7.53.36-2.35z"/><path d="m80.61 82.22 6.2-8c.23-.27.7-.77.26-1.14s-.83.17-1.07.46l-6.84 7.46z"/><path d="m77.5 82.83a1 1 0 0 0 1.6 1.35l1-1.23-1.51-1.26z"/><path d="m87.68 80 .69-1.26c.19-.32.57-.86.07-1.15a.34.34 0 0 0 -.12-.06h-.06c-.5-.28-.78.32-1 .64l-.75 1.23.64.3z"/><path d="m87.2 80.84h-.07l.05-.08-.49-.23-.53-.36v.09h-.08l-1.22 2-4.26 6.31a1 1 0 0 0 .4 1.43l.1.06.15.1a1 1 0 0 0 1.41-.39l3.43-6.83z"/><path d="m73.63 74.38 8.56-5.38c.31-.18.93-.48.64-1s-.84-.13-1.17.06l-9 4.71z"/><path d="m72.84 74.87-1-1.7-1.37.72a1 1 0 0 0 -.38 1.42 1 1 0 0 0 1.43.39z"/><path d="m81 74.67 1.08-1c.29-.23.82-.61.46-1.06l-.09-.09v-.06c-.37-.43-.84 0-1.12.28l-1.12.89.49.5z"/><path d="m80.29 75.33-.05-.07.07-.06-.38-.38-.37-.52-.08.06h-.06l-1.84 1.46-6.14 4.57a1 1 0 0 0 -.14 1.46l.08.09.1.15a1.05 1.05 0 0 0 1.47.11l5.55-5.24z"/><path d="m69.74 64.62 9.91-2.17c.35-.06 1-.13.93-.7s-.74-.41-1.11-.34l-10.06 1.35z"/><path d="m66.12 64.3a1 1 0 0 0 1.21.85l1.51-.33-.35-1.94-1.53.2a1.05 1.05 0 0 0 -.84 1.22z"/><path d="m76.61 67.43 1.33-.52c.36-.13 1-.29.8-.84a.43.43 0 0 0 0-.12.64.64 0 0 1 0-.07c-.21-.54-.8-.26-1.15-.12l-1.36.46.29.63z"/><path d="m75.68 67.79v-.07h.08l-.23-.49-.16-.61h-.11v-.08l-2.26.74-7.33 2.2a1 1 0 0 0 -.67 1.32s0 .07 0 .11a.84.84 0 0 0 0 .17 1 1 0 0 0 1.34.61l7-3z"/><path d="m69.43 54.12 10 1.35c.35.06 1 .23 1.12-.34s-.56-.64-.93-.7l-9.91-2.17z"/><path d="m66.14 52.58a1 1 0 0 0 .86 1.21l1.53.21.34-1.94-1.51-.33a1 1 0 0 0 -1.22.85z"/><path d="m65.66 47.45 7.34 2.19 2.25.76v-.08h.09l.14-.52.26-.58h-.09v-.08l-2.19-.86-7-3a1 1 0 0 0 -1.33.61.36.36 0 0 0 0 .11.77.77 0 0 0 -.07.16 1 1 0 0 0 .6 1.29z"/><path d="m74.92 59.11h1.44c.37 0 1 .06 1-.52a.53.53 0 0 0 0-.13v-.07c0-.58-.66-.52-1-.51h-1.44l.06.7z"/><path d="m73.92 59.14v-.09h.08v-.54-.63h-.11v-.08l-2.35-.06-7.64-.45a1 1 0 0 0 -1 1v.12a1.09 1.09 0 0 0 0 .18 1 1 0 0 0 1 1l7.63-.45z"/><path d="m72.73 44.15 9 4.71c.31.17.88.56 1.17.06s-.31-.79-.64-1l-8.56-5.43z"/><path d="m70.54 43 1.37.72 1-1.71-1.3-.82a1 1 0 0 0 -1 1.81z"/><path d="m71.46 36.59 6.13 4.56 1.87 1.48.05-.05.08.05.31-.44.45-.45-.08-.08v-.06l-1.72-1.6-5.55-5.21a1 1 0 0 0 -1.46.12l-.07.09a.74.74 0 0 0 -.12.13 1 1 0 0 0 .11 1.46z"/><path d="m77.54 51.17c.35.14.94.42 1.15-.12a.35.35 0 0 0 0-.13v-.07c.19-.54-.44-.71-.8-.83l-1.33-.53-.19.68-.25.54z"/><path d="m87.15 43.86c.44-.37 0-.85-.27-1.14l-6.19-8-1.45 1.22 6.83 7.49c.23.24.63.8 1.08.43z"/><path d="m78.61 35.22 1.51-1.22-.94-1.23a1.05 1.05 0 0 0 -1.61 1.35z"/><path d="m88.4 38.24-.68-1.24-.58.4-.54.26.75 1.22c.18.33.45.92 1 .64l.1-.07h.07c.48-.35.08-.89-.12-1.21z"/><path d="m84.84 34.75 1.24 2h.07v.08l.44-.31.58-.27v-.1h.07l-1.13-2.15-3.43-6.8a1 1 0 0 0 -1.41-.39l-.1.06a.8.8 0 0 0 -.17.13 1 1 0 0 0 -.37 1.42z"/><path d="m80.24 43.26 1.12.89c.28.25.74.71 1.12.28l.08-.11c.37-.45-.17-.83-.46-1.06l-1.08-1-.4.57z"/><path d="m92 39.77c.12.33.31 1 .85.79s.28-.8.15-1.15l-3-9.67-1.78.65z"/><path d="m87.82 29.53 1.85-.67-.47-1.48a1 1 0 0 0 -1.34-.61 1 1 0 0 0 -.63 1.33z"/><path d="m95.77 34.3-.67.18-.6.05.28 1.41c.06.37.12 1 .69.93a.42.42 0 0 0 .12 0h.07c.57-.11.4-.75.33-1.11z"/><path d="m93.83 31.22.47 2.33h.08v.09l.52-.14.64-.05v-.11h.07l-.34-2.34-.88-7.6a1 1 0 0 0 -1.2-.85h-.11-.18a1 1 0 0 0 -.83 1.21z"/><path d="m98.46 28.26.42 10.13c0 .36 0 1 .53 1s.53-.66.53-1l.41-10.13z"/><path d="m99.41 24.75a1 1 0 0 0 -1 1l.06 1.54h2l.06-1.54a1 1 0 0 0 -1.12-1z"/><path d="m105.92 40.6c.54.19.72-.44.85-.8l3.86-9.38-1.78-.65-3.07 9.67c-.12.33-.4.96.14 1.16z"/><path d="m111.57 28.13a1 1 0 0 0 -.63-1.33 1 1 0 0 0 -1.34.62l-.47 1.47 1.85.67z"/><path d="m103.1 36.84h.13.06c.58.09.63-.56.69-.93l.28-1.41-.7-.06-.57-.16-.22 1.42c-.07.4-.24 1.03.33 1.14z"/><path d="m103.21 33.35v.09l.54.05.62.16v-.11h.08l.47-2.3 1.76-7.45a1 1 0 0 0 -.83-1.21h-.11-.18a1 1 0 0 0 -1.2.85l-.87 7.57-.36 2.36z"/><path d="m118.1 34.75-6.2 8c-.22.28-.7.77-.26 1.14s.83-.17 1.08-.46l6.83-7.43z"/><path d="m121.22 34.14a1.06 1.06 0 0 0 -.14-1.47 1 1 0 0 0 -1.47.12l-.94 1.21 1.5 1.26z"/><path d="m111 37-.68 1.26c-.2.32-.57.86-.08 1.16h.12.06c.51.28.78-.32 1-.64l.75-1.23-.63-.3z"/><path d="m111.51 36.13h.07v.08l.48.23.53.37.06-.09h.07l1.23-2 4.2-6.39a1 1 0 0 0 -.36-1.42l-.11-.05a.58.58 0 0 0 -.15-.11 1 1 0 0 0 -1.41.39l-3.47 6.86z"/><path d="m125.09 42.59-8.57 5.41c-.31.18-.93.48-.64 1s.84.13 1.17-.06l9-4.71z"/><path d="m125.87 42.1 1 1.7 1.37-.71a1 1 0 0 0 -1-1.82z"/><path d="m117.67 42.3-1.07 1c-.29.24-.83.61-.47 1.06a.28.28 0 0 0 .1.09v.06c.38.43.84 0 1.12-.28l1.12-.89-.49-.5z"/><path d="m118.42 41.64v.07l-.07.06.38.38.37.52.09-.06.05.06 1.84-1.47 6.14-4.57a1 1 0 0 0 .14-1.46l-.08-.09a.71.71 0 0 0 -.1-.14 1 1 0 0 0 -1.46-.12l-5.56 5.25z"/><path d="m129 52.35-9.91 2.17c-.35.06-1 .14-.93.71s.74.4 1.12.34l10.05-1.35z"/><path d="m131.39 51.82-1.51.33.34 1.94 1.53-.2a1.05 1.05 0 0 0 -.36-2.07z"/><path d="m135.85 58.36a1 1 0 0 0 -1-1l-7.63.45-2.38.06v.08h-.09v.54l-.06.64h.11v.08l2.35.06 7.64.45a1 1 0 0 0 1.05-1 .49.49 0 0 0 0-.12 1.1 1.1 0 0 0 .01-.24z"/><path d="m120.77 50.07c-.35.12-1 .29-.8.83a.67.67 0 0 0 .03.1.25.25 0 0 0 0 .07c.2.54.8.26 1.15.12l1.36-.45-.3-.64-.15-.58z"/><path d="m123 49.18v.08h-.09l.23.49.17.62h.1v.07l2.23-.75 7.34-2.19a1.06 1.06 0 0 0 .63-1.33v-.11a1.09 1.09 0 0 0 -.05-.17 1 1 0 0 0 -1.33-.61l-7 3z"/><path d="m129.28 62.85-10-1.35c-.35-.06-1-.23-1.12.34s.56.64.94.71l9.9 2.17z"/><path d="m132.57 64.39a1 1 0 0 0 -.84-1.21l-1.53-.18-.34 1.94 1.51.33a1 1 0 0 0 1.2-.88z"/><path d="m133.06 69.52-7.32-2.19-2.26-.75v.07h-.08l-.14.52-.27.58h.1v.08l2.19.86 7 3a1 1 0 0 0 1.34-.61v-.11a.8.8 0 0 0 .08-.16 1.06 1.06 0 0 0 -.64-1.29z"/><path d="m123.79 57.86h-1.43c-.38 0-1-.07-1 .51v.13.07c0 .58.66.52 1 .51h1.43l-.06-.7z"/><path d="m126 72.82-9-4.7c-.31-.18-.88-.57-1.17-.06s.31.79.64 1l8.53 5.4z"/><path d="m128.17 74-1.36-.72-1 1.71 1.31.83a1 1 0 0 0 1-1.82z"/><path d="m127.25 80.38-6.13-4.56-1.86-1.48-.06.06-.07-.06-.31.44-.45.45.08.08v.06l1.76 1.56 5.57 5.25a1 1 0 0 0 1.46-.11.36.36 0 0 0 .07-.1.74.74 0 0 0 .13-.12 1.05 1.05 0 0 0 -.19-1.47z"/><path d="m121.17 65.8c-.35-.13-.94-.41-1.15.13v.12.07c-.19.54.45.71.8.83l1.34.53.18-.68.25-.54z"/><path d="m119.47 81.06-6.83-7.49c-.23-.27-.63-.83-1.07-.46s0 .85.26 1.14l6.19 8z"/><path d="m120.1 81.75-1.51 1.25 1 1.22a1 1 0 0 0 1.6-1.35z"/><path d="m110.31 78.73.69 1.27.57-.4.54-.25-.74-1.23c-.18-.33-.46-.92-1-.64a.39.39 0 0 0 -.1.08h-.06c-.47.31-.09.85.1 1.17z"/><path d="m113.88 82.22-1.24-2h-.08v-.07l-.44.3-.58.28.05.09-.07.05 1.13 2.06 3.35 6.84a1 1 0 0 0 1.42.39l.1-.06a.6.6 0 0 0 .16-.08 1 1 0 0 0 .37-1.42z"/><path d="m118.48 73.72-1.12-.9c-.29-.25-.75-.71-1.13-.27a.61.61 0 0 0 -.07.1c-.37.45.17.83.46 1.06l1.08.95.4-.57z"/><path d="m106.68 77.2c-.12-.33-.31-1-.85-.79s-.27.8-.14 1.16l3.07 9.66 1.78-.65z"/><path d="m110.89 87.44-1.85.68.47 1.47a1 1 0 0 0 2-.72z"/><path d="m104.88 85.76-.47-2.34h-.08v-.09l-.52.14h-.64v.11h-.08l.35 2.33.89 7.6a1 1 0 0 0 1.19.85h.12.17a1 1 0 0 0 .84-1.21z"/></g><path d="m99.36 42.64-1.14 2.34 2.6.67z" fill="#f8af00"/><path d="m90.9 66.43-.87 4.91 4.37-2.33z" fill="#f8af00"/><path d="m114.44 53.6-10.46-1.46-2.95-6.07-3.18-.35-2.06 4.25 8.71 3.52-9.25-2.42-.52 1.07-4.26.59 12.97 7.23-16.51-6.73-2.66.37.28.27 15.81 11.59-9.07-5.09.59.56-.83 4.65 3.5 3.35 4.81-2.56 9.32 4.97-1.84-10.41z" fill="#f8af00"/></svg>