<svg fill="none" height="14" viewBox="0 0 14 14" width="14" xmlns="http://www.w3.org/2000/svg"><path d="m11.3134 2.68665c-1.144-1.14397-2.69558-1.78665-4.3134-1.78665s-3.16938.64268-4.31335 1.78665-1.78665 2.69553-1.78665 4.31335.64268 3.1694 1.78665 4.3134c1.14397 1.1439 2.69553 1.7866 4.31335 1.7866s3.1694-.6427 4.3134-1.7866c1.1439-1.144 1.7866-2.69558 1.7866-4.3134s-.6427-3.16938-1.7866-4.31335zm-.7476 7.87915c-.94568.9458-2.22835 1.4771-3.5658 1.4771s-2.62012-.5313-3.56584-1.4771c-.94572-.94568-1.47702-2.22835-1.47702-3.5658s.5313-2.62012 1.47702-3.56584 2.22839-1.47702 3.56584-1.47702 2.62012.5313 3.5658 1.47702c.9458.94572 1.4771 2.22839 1.4771 3.56584s-.5313 2.62012-1.4771 3.5658zm-3.04052-.2548c.13931-.1393.21758-.32827.21758-.52529 0-.19701-.07827-.38596-.21758-.52527-.13931-.13932-.32826-.21758-.52528-.21758s-.38597.07826-.52528.21758c-.13931.13931-.21758.32826-.21758.52527 0 .19702.07827.38599.21758.52529s.32826.2176.52528.2176.38597-.0783.52528-.2176zm-.15152-6.68476c-.09913-.09912-.23357-.15481-.37376-.15481s-.27463.05569-.37376.15481c-.09912.09913-.15481.23357-.15481.37376v3.85714c0 .14019.05569.27463.15481.37376.09913.09913.23357.15481.37376.15481s.27463-.05568.37376-.15481c.09912-.09913.15481-.23357.15481-.37376v-3.85714c0-.14019-.05569-.27463-.15481-.37376z" fill="#fff" stroke="#fff" stroke-width=".2"/></svg>